<svg id="svg8" width="148.47mm" height="154.43mm" version="1.1" viewBox="0 0 148.47 154.43" xmlns="http://www.w3.org/2000/svg">
 <g id="layer1" transform="translate(-36.219 -57.034)">
  <circle id="circle" cx="108.92" cy="135.03" r="49.409" fill="#a00" style="paint-order:stroke fill markers"/>
  <g id="spikes" fill="#a00">
   <path id="path819" d="m74.391 101.27c-0.34416 0.44864-6.7371-4.0662-15.301-10.747-0.98294 0.50421-1.9933 1.014-3.0353 1.5333-0.98444-3.1514-2.0085-6.4697-3.0892-9.9899-0.01037-0.0027 1.2224 0.32272 1.212 0.31999 3.5308 0.93269 6.9025 1.8279 10.091 2.6817-0.85479 1.1303-1.6854 2.2215-2.4988 3.2803 9.0254 6.1783 15.307 10.983 14.956 11.47-0.34943 0.48396-6.9994-4.0394-16.541-11.271 0.90382-0.99653 1.8404-2.0205 2.8151-3.0801-2.6255-0.72738-5.3302-1.4845-8.1737-2.2852-0.0099-0.0028-0.96629-0.27227-0.97617-0.27506 0.95598 2.7031 1.8489 5.2425 2.7127 7.7385 0.89309-0.70373 1.7626-1.382 2.6145-2.0374 9.4436 7.132 15.558 12.214 15.214 12.662z"/>
   <path id="path819-6" d="m65.326 115.36c-0.20924 0.55264-7.733-1.9892-17.974-6.0309-0.6693 0.86478-1.3599 1.7454-2.0742 2.6472-2.1174-2.8799-4.3535-5.9394-6.7146-9.1797-0.0045 3.3e-4 0.62936-0.0468 0.62489-0.0464 3.7667-0.27963 7.342-0.54033 10.745-0.77884-0.30315 1.469-0.60121 2.8874-0.89798 4.265 10.524 3.4016 17.99 6.2481 17.794 6.8183-0.19566 0.56759-7.9603-1.8304-19.349-5.9855 0.41396-1.3396 0.84811-2.7206 1.304-4.1534-2.7636 0.13403-5.5882 0.26007-8.5836 0.38896-0.0045 1.9e-4 -0.49224 0.0211-0.4967 0.0213 1.941 2.5262 3.7611 4.9036 5.5239 7.2246 0.52295-1.0293 1.0346-2.0251 1.5391-2.9923 11.325 4.1218 18.769 7.2508 18.56 7.8017z"/>
   <path id="path819-6-9" d="m62.115 127.4c0.13115 0.47581-5.5483 2.3127-13.606 4.4286-0.1093 1.0783-0.23271 2.1878-0.36865 3.3377-2.5058-1.2494-5.2687-2.6305-8.0837-4.0442 0.0033-3e-3 0.68003-0.64376 0.6833-0.64686 2.1833-2.0661 4.3532-4.1119 6.3259-5.9695 0.41549 1.4058 0.80743 2.7532 1.1778 4.0584h2e-6c7.9317-2.7724 13.741-4.4098 13.898-3.9156 0.15608 0.49105-5.6364 2.5482-14.591 5.1393h-2e-6c-0.26014-1.3483-0.52244-2.7539-0.79226-4.232-1.5279 1.5305-3.1873 3.1916-4.85 4.8479 0.0033-3e-3 -0.52647 0.5242-0.52314 0.52088 2.1236 1.1208 4.22 2.2339 6.1616 3.2669-0.12681-1.1627-0.24141-2.2796-0.34219-3.3599 8.8579-2.5482 14.779-3.9061 14.91-3.4316z"/>
   <path id="path819-6-9-2" d="m64.096 147.05c0.23908 0.5404-6.9026 4.0137-17.032 8.3273 0.13071 1.0857 0.25731 2.1976 0.38196 3.3413-3.5298-0.56367-7.2702-1.1718-11.227-1.8209-0.0029 3e-3 0.41527-0.47523 0.41232-0.47185 2.4855-2.844 4.848-5.5402 7.1035-8.0996 0.81564 1.2588 1.5995 2.478 2.3555 3.6672 9.8816-4.968 17.196-8.1838 17.457-7.6398 0.25925 0.54151-6.953 4.2864-17.979 9.3251-0.64595-1.2445-1.3065-2.5326-1.9881-3.8728-1.8736 2.036-3.7962 4.1092-5.8383 6.3042-3e-3 3e-3 -0.33563 0.3607-0.33867 0.36397 3.1559 0.43569 6.1212 0.85034 9.006 1.265-0.35039-1.1-0.68536-2.1684-1.0053-3.2112 10.958-5.0179 18.455-8.0166 18.693-7.4779z"/>
   <path id="path819-8" d="m86.746 91.697c-0.34884 0.21552-3.2496-4.0597-6.9573-10.198-0.79657 0.10959-1.6151 0.21548-2.4603 0.31975 0.23995-2.2656 0.50178-4.677 0.78118-7.211-0.0013-8.92e-4 0.69402 0.46119 0.69268 0.4603 2.0723 1.3776 4.0711 2.7108 5.9384 3.9606-0.88815 0.56556-1.7463 1.1076-2.5827 1.6295 4.1595 5.9083 6.9115 10.346 6.5503 10.586-0.35894 0.23821-3.4361-4.0979-7.6798-10.856 0.88703-0.45154 1.8075-0.91428 2.7686-1.3933-1.5135-1.0021-3.0902-2.0505-4.726-3.1428-0.0012-7.84e-4 -0.546-0.36475-0.54717-0.36553-0.17458 1.9374-0.34398 3.7731-0.51504 5.5557 0.79194-0.28577 1.5587-0.55755 2.3058-0.81573 4.2086 6.6726 6.7794 11.257 6.4313 11.472z"/>
   <path id="path819-8-0" d="m102.86 86.595c-0.5899 0.03477-1.3433-7.871-1.8377-18.87-1.0627-0.25764-2.1486-0.5283-3.2636-0.81192 1.7637-3.1091 3.6429-6.3999 5.6359-9.8787-2e-3 -0.0039 0.29979 0.55537 0.29766 0.55142 1.7939 3.3239 3.4924 6.4807 5.1002 9.4895-1.4646 0.32336-2.8811 0.63075-4.2598 0.9226 1.1942 10.996 1.6459 18.973 1.0452 19.027-0.598 0.05327-1.581-8.0136-2.4408-20.106 1.3919-0.1694 2.8297-0.33724 4.3238-0.50646-1.2513-2.4678-2.5202-4.9945-3.8614-7.6759-2e-3 -4e-3 -0.22039-0.44067-0.22238-0.44466-1.5129 2.8037-2.9394 5.4361-4.3378 7.9933 1.1531 0.05688 2.2711 0.11711 3.36 0.1825 0.86422 12.021 1.0487 20.093 0.4607 20.128z"/>
   <path id="path819-6-9-2-4" d="m71.72 163.65c0.32842 0.31211-3.7382 4.9676-9.6963 11.162 0.28559 0.8889 0.57193 1.8031 0.86203 2.7472-2.538 0.38581-5.2131 0.78358-8.0408 1.1996-0.0012 3e-3 0.45459-1.183 0.45338-1.1798 1.0378-2.6992 2.043-5.3032 2.9882-7.7411 0.79002 0.86733 1.5508 1.7077 2.2873 2.5287 5.5916-6.6259 9.8873-11.182 10.252-10.856 0.36264 0.32438-3.7548 5.1832-10.276 12.094-0.67961-0.88875-1.3778-1.8096-2.1008-2.7689-0.77326 2.0189-1.5843 4.1256-2.4304 6.3124-0.0011 3e-3 -0.3693 0.95385-0.37039 0.95669 2.1493-0.40196 4.1767-0.77691 6.1653-1.135-0.46748-0.83535-0.91565-1.6464-1.3459-2.439 6.4134-6.8245 10.924-11.192 11.252-10.881z"/>
   <path id="path819-6-9-2-4-3" d="m88.184 179.23c0.47847 0.3468-3.9468 6.9411-10.532 15.765 0.65909 0.87259 1.3278 1.7699 2.0108 2.6956-3.3342 1.2884-6.8729 2.6442-10.619 4.0734-8.51e-4 4e-3 0.11986-0.61963 0.11901-0.61523 0.71758-3.7083 1.4032-7.2269 2.0652-10.573 1.3381 0.67763 2.6288 1.3371 3.8805 1.9846 6.0415-9.2643 10.746-15.723 11.244-15.384 0.49645 0.33761-3.8532 7.2021-10.849 17.103-1.1843-0.75067-2.4031-1.5317-3.6664-2.3472-0.59513 2.7021-1.2139 5.461-1.8748 8.3854-9.83e-4 4e-3 -0.10864 0.48058-0.10962 0.48494 2.9467-1.2109 5.7181-2.3441 8.42-3.4369-0.85617-0.77448-1.6831-1.5293-2.4842-2.2697 6.9465-9.8489 11.917-16.212 12.394-15.866z"/>
   <path id="path819-8-0-6" d="m118.61 87.595c-0.38371-0.18263 1.8953-5.4564 5.4136-12.601-0.57276-0.53907-1.1553-1.0944-1.7514-1.6681 2.1855-1.3446 4.5029-2.7609 6.9593-4.2574 5e-5 -0.0039-7e-3 0.49714-7e-3 0.49324-0.0385 2.7228-0.0783 5.3066-0.12313 7.7659-1.0246-0.31437-2.014-0.62179-2.9747-0.92554-3.0781 7.3861-5.5742 12.602-5.9726 12.427-0.39651-0.17449 1.7992-5.63 5.4765-13.589 0.92691 0.38447 1.8817 0.78586 2.8715 1.2059 0.0792-1.9982 0.16797-4.0399 0.26548-6.2048 1.8e-4 -0.0039 0.0175-0.38813 0.0177-0.392-1.9157 1.2423-3.7164 2.4055-5.4767 3.5326 0.69849 0.44407 1.3741 0.87792 2.0299 1.3047-3.6468 7.9119-6.346 13.091-6.7285 12.909z"/>
   <path id="path819-68" d="m157.11 125.53c-0.16925-0.56417 7.4759-3.1613 19.063-6.4752 0.43511 1.0003 0.87539 2.0297 1.3246 3.0932 1.9219-2.1911 3.9049-4.4344 6.019-6.8176 5e-3 5.3e-4 -0.49863-0.0568-0.49396-0.0563-2.9789-0.33951-5.7876-0.66416-8.5349-0.99249 0.35381 1.4614 0.68964 2.8695 1.0082 4.235-11.653 3.3427-19.568 5.188-19.723 4.608-0.15591-0.5826 7.492-2.8962 18.23-5.5483-0.19901-1.3951-0.39644-2.831-0.59539-4.3177 3.3778 0.47758 6.9259 0.98942 10.664 1.5336 4e-3 6.2e-4 0.6158 0.0897 0.62008 0.0903-2.5835 3.0659-5.0295 5.9604-7.3445 8.684-0.64905-0.94988-1.2759-1.8769-1.8827-2.7867-10.5 3.3104-18.185 5.3161-18.354 4.7501z"/>
   <path id="path819-6-6" d="m153.8 146.61c0.0845-0.47674 5.8598 0.28886 14.576 1.9511-0.0407 1.0859-0.0936 2.2108-0.15642 3.3846 1.7905-1.2231 3.7921-2.5906 5.7577-3.9258-3e-3 -2e-3 -0.44931-0.39499-0.45203-0.39738-1.7038-1.4985-3.4223-3.0179-4.9882-4.4025-0.17425 1.5071-0.34573 2.9371-0.51927 4.3067-8.7992-1.7007-14.501-3.1669-14.394-3.6577 0.10849-0.49386 5.7936 0.54791 13.611 2.4943 0.29038-1.3347 0.60104-2.7152 0.93301-4.159 2.0435 1.6781 4.3075 3.5392 6.572 5.408-3e-3 -2e-3 0.59968 0.49508 0.59675 0.49266-2.6328 1.6689-5.2662 3.3307-7.6023 4.8033-0.19743-1.1346-0.37972-2.2285-0.54576-3.2914-7.8889-1.2833-13.474-2.5286-13.389-3.0069z"/>
   <path id="path819-6-9-2-0" d="m146.97 162.42c0.36162-0.46493 6.9094 4.2595 16.326 11.781-0.56289 0.93436-1.1465 1.8898-1.7528 2.8723 2.8994 0.29608 5.8769 0.61165 9.0444 0.95294 2e-3 4e-3 -0.24276-0.43925-0.24049-0.43513-1.45-2.6242-2.8135-5.1011-4.1384-7.5301-0.98574 1.1354-1.9385 2.2252-2.8665 3.2763-9.4786-7.5583-15.57-12.938-15.187-13.4 0.38438-0.46475 6.7028 4.4263 15.088 11.639 1.0214-0.97081 2.0771-1.964 3.1732-2.9879 1.5688 3.0293 3.2083 6.2172 4.9313 9.5784 2e-3 4e-3 0.28386 0.5538 0.28582 0.55765-3.9958-0.32808-7.7722-0.64354-11.333-0.95118 0.39781-1.0795 0.78984-2.1277 1.1795-3.1494-8.784-6.6376-14.872-11.737-14.51-12.203z"/>
   <path id="path819-8-9" d="m149.32 109.22c-0.24301-0.37784 4.7741-3.8629 12.518-8.6922 0.51343 0.65582 1.0365 1.3324 1.5728 2.0326 0.95361-2.026 1.9434-4.1098 2.9989-6.3217 2e-3 -3.84e-4 -0.30537 0.04886-0.30297 0.04847-2.2412 0.35842-4.3541 0.69281-6.4246 1.012 0.54792 1.016 1.0717 1.9955 1.574 2.9463-7.779 4.8579-13.147 7.8455-13.381 7.4556-0.2354-0.39166 4.8352-3.6731 12.082-7.8487-0.41933-0.99852-0.84546-2.0283-1.2827-3.0962 2.5714-0.3366 5.2739-0.68238 8.1228-1.0431 2e-3 -2.82e-4 0.38312-0.04848 0.38535-0.04876-1.2648 2.8038-2.466 5.4564-3.6026 7.9487-0.65818-0.5755-1.2956-1.1383-1.915-1.6923-6.9366 4.6109-12.102 7.6784-12.346 7.2993z"/>
   <path id="path819-6-9-2-4-8" d="m130.36 176.98c0.37804-0.32949 4.8698 4.5005 11.213 12.082-0.7289 0.56605-1.4812 1.1436-2.2603 1.7366 2.4529 0.80188 5.0237 1.6486 7.7216 2.5427 6e-5 2e-5 0.11567 0.0383 0.11573 0.0384-0.64419-2.3145-1.2453-4.4881-1.8264-6.633-1.155 0.63183-2.2666 1.234-3.3444 1.8095-6.3394-7.5683-10.319-12.829-9.9405-13.139 0.37974-0.31053 4.6745 4.552 10.286 11.596 1.1492-0.48476 2.3376-0.97766 3.5731-1.484 0.63669 2.7365 1.2929 5.6032 1.9826 8.6354 7e-5 3e-5 -0.14287-0.0465-0.1428-0.0465-3.3295-1.0841-6.5134-2.1261-9.4614-3.0968 0.63309-0.70117 1.252-1.3803 1.8612-2.0405-6.0563-6.6489-10.158-11.67-9.7776-12.002z"/>
   <path id="path819-6-9-2-4-3-1" d="m115.7 182.33c0.58643-0.055 1.63 7.9514 2.6014 19.964-1.0663 0.22999-2.1622 0.45931-3.2933 0.69065 1.7705 2.3151 3.5802 4.7004 5.5014 7.2418-1e-3 4e-3 0.15371-0.47775 0.15227-0.47328 0.91847-2.854 1.7889-5.5441 2.6509-8.1733-1.5024 0.0596-2.9491 0.11208-4.3505 0.15602-0.98672-12.083-1.2402-20.206-0.64102-20.244 0.60188-0.0383 1.367 7.9152 1.8565 18.965 1.407 0.0791 2.8537 0.16782 4.3505 0.26502-1.1323 3.218-2.3316 6.5962-3.5999 10.154-1e-3 4e-3 -0.20901 0.58616-0.21046 0.59023-2.4982-3.1358-4.8554-6.1031-7.0708-8.9082 1.0589-0.44966 2.0911-0.88208 3.1024-1.2981-1.1817-10.946-1.6376-18.875-1.0493-18.93z"/>
   <path id="path819-8-0-6-1" d="m139.92 97.783c-0.50363-0.30543 3.4319-7.3555 9.814-17.579 0.99318 0.45107 2.0097 0.92032 3.0557 1.4089-0.0412-2.9142-0.072-5.9082-0.0993-9.0939 4e-3 -0.0027-0.40824 0.29192-0.40442 0.28919-2.4389 1.7437-4.7415 3.3845-7.0011 4.9814 1.2418 0.84784 2.4345 1.6682 3.5858 2.4685-6.4116 10.289-11.051 16.961-11.554 16.635-0.50608-0.32806 3.6215-7.1696 9.816-16.332-1.0824-0.90233-2.191-1.8361-3.3348-2.8064 2.8276-1.9085 5.8045-3.9057 8.9439-6.0058 4e-3 -0.0024 0.51727-0.34599 0.52086-0.34839 0.13618 4.007 0.25952 7.7945 0.36574 11.367-1.1182-0.27032-2.2047-0.53852-3.2647-0.80741-5.5774 9.4926-9.9381 16.13-10.443 15.823z"/>
   <path id="path819-6-9-2-4-3-1-3" d="m95.394 182.02c0.47304-0.14038 2.3332 5.3635 4.6607 13.91-1.0331 0.23196-2.1052 0.46408-3.2244 0.70015 1.9377 1.34 4.2359 2.9268 6.3822 4.4175-1.6e-4 -1.1e-4 0.10144 0.0705 0.10128 0.0703 0.65579-2.1105 1.2966-4.154 1.9118-6.1027-1.5039 0.20404-2.9318 0.39024-4.3015 0.55752-2.3034-8.5473-3.4914-14.237-3.0214-14.356 0.47178-0.11933 2.1025 5.3502 3.9244 13.105 1.3928-0.0327 2.8391-0.0546 4.3554-0.0692-0.76436 2.5468-1.5924 5.2896-2.4508 8.1129-1.5e-4 -1.2e-4 -0.1234-0.0924-0.12355-0.0925-2.657-1.9889-5.3906-4.0443-7.7223-5.7973 0.99711-0.42713 1.9618-0.83335 2.9033-1.2202-2.4525-7.5706-3.8708-13.095-3.3951-13.236z"/>
  </g>
  <g id="eyes" fill="#e6e6e6" stroke="#000">
   <path id="path1073" d="m75.038 116.41c1.4532 1.3118 3.209 2.3774 4.9322 3.4423 3.3568 2.058 7.036 3.6983 10.755 5.2281 1.8162 0.7522 3.6452 1.4804 5.4687 2.2192l-4.0245 1.1633c-1.7787-0.76456-3.5687-1.508-5.3594-2.2513-3.7195-1.5835-7.4031-3.2466-10.811-5.2827-1.7947-1.079-3.6245-2.1429-5.1771-3.4562l4.2161-1.0628z" stroke-width="3.5638" style="paint-order:stroke fill markers"/>
   <path id="path1075" d="m121.6 126.65c2.1988-0.52277 4.3524-1.1666 6.4415-1.9082 1.5031-0.67187 5.8605-2.2788-1.265 0.59495-0.35522 0.14326 0.672-0.33687 1.0024-0.51166 0.41828-0.22128 1.3652-0.75433 1.787-0.99039 1.3835-0.77991 2.7387-1.5906 3.8692-2.5862 0.74944-0.60644 1.1686-1.3678 1.6097-2.1168 0.32008-0.47375 0.53887-0.98228 0.74383-1.4908 0.11892-0.48275 0.29537-0.95402 0.44497-1.4312l4.777-1.7733c-0.11879 0.49359-0.36406 0.95683-0.43584 1.4575-0.1773 0.53429-0.41063 1.0644-0.71396 1.5636-0.52565 0.74331-0.82126 1.592-1.6003 2.2202-0.27377 0.25611-0.67413 0.64327-0.9777 0.87295-0.88886 0.67252-1.9287 1.2235-2.9003 1.8197-0.91652 0.51137-1.8161 1.084-2.7875 1.533-2.4786 1.1458-4.958 2.325-7.5733 3.2874-2.1563 0.73291-4.3613 1.38-6.5994 1.9509l4.1777-2.4917z" stroke-width="4.0567" style="paint-order:stroke fill markers"/>
  </g>
 </g>
</svg>
